<svg data-v-423bf9ae="" xmlns="http://www.w3.org/2000/svg" viewBox="0 0 430 90" class="iconLeft"><!----><!----><!----><g data-v-423bf9ae="" id="45c2d34e-7ccc-4c68-a8b6-d4930e2ed1ae" fill="white" transform="matrix(4.385964870452881,0,0,4.385964870452881,215.5266876220703,1.7543836832046509)"><path d="M0.45 11.90C0.45 12.39 1.40 12.81 2.25 12.81C3.30 12.81 4.27 12.17 4.27 11.12C4.27 10.25 3.30 9.83 2.51 9.45C1.90 9.16 1.39 8.95 1.39 8.37C1.39 7.67 1.92 7.43 2.37 7.43C3.25 7.43 3.07 8.34 3.42 8.34C3.60 8.34 4.05 8.23 4.05 8.06C4.05 7.67 3.63 7.06 2.55 7.06C1.54 7.06 0.49 7.71 0.49 8.68C0.49 9.62 1.39 10.00 2.14 10.33C2.80 10.61 3.36 10.91 3.36 11.54C3.36 12.14 2.94 12.40 2.48 12.40C1.86 12.40 1.50 12.08 1.20 11.72C1.06 11.54 1.01 11.31 0.91 11.31C0.81 11.31 0.45 11.62 0.45 11.90ZM5.17 11.61C5.17 12.35 5.70 12.84 6.58 12.84C7.20 12.84 7.91 12.45 8.32 12.19C8.41 12.14 8.43 12.11 8.47 12.24C8.55 12.46 8.61 12.88 9.06 12.88C9.16 12.88 9.39 12.74 9.65 12.56C9.98 12.31 10.36 12.04 10.36 12.01C10.36 11.93 10.21 11.73 10.14 11.73C10.11 11.73 9.69 12.08 9.58 12.08C9.53 12.08 9.32 12.01 9.32 11.70C9.32 11.40 9.41 9.56 9.41 8.85C9.41 7.73 8.97 6.97 7.53 6.97C6.61 6.97 5.36 7.67 5.36 8.85C5.36 9.00 5.42 9.11 5.49 9.11C5.56 9.11 6.06 8.86 6.30 8.69C6.38 8.64 6.40 8.50 6.40 8.41C6.40 7.84 6.43 7.63 6.80 7.48C6.93 7.42 7.10 7.39 7.24 7.39C8.40 7.39 8.41 8.32 8.41 9.31C8.41 9.44 8.41 9.48 8.34 9.49C6.96 9.73 5.17 10.32 5.17 11.61ZM6.23 11.21C6.23 10.58 6.86 10.22 7.52 10.01C7.91 9.88 8.33 9.80 8.37 9.80C8.40 9.80 8.41 9.81 8.41 9.91L8.41 11.75C8.41 11.84 7.63 12.14 7.10 12.14C6.54 12.14 6.23 11.65 6.23 11.21ZM10.86 7.73C10.86 7.77 10.88 7.80 10.93 7.80C10.99 7.80 11.68 7.74 11.72 7.74C11.80 7.74 11.86 7.70 11.87 7.90C11.90 8.33 11.90 8.81 11.90 9.28C11.90 9.73 11.87 12.21 11.79 12.21L11.16 12.21C10.99 12.21 10.98 12.29 10.98 12.43C10.98 12.59 10.98 12.67 11.16 12.67C11.58 12.67 12.08 12.64 12.43 12.64C12.84 12.64 13.34 12.67 13.61 12.67C13.79 12.67 13.79 12.56 13.79 12.43C13.79 12.29 13.79 12.21 13.59 12.21L13.06 12.21C12.94 12.21 12.92 12.21 12.92 11.98C12.92 10.84 12.94 9.67 12.94 8.53C12.94 8.41 12.95 8.36 13.16 8.25C13.44 8.11 13.85 7.85 14.39 7.85C15.44 7.85 15.69 8.62 15.69 9.63C15.69 11.03 15.67 12.21 15.61 12.21L15.01 12.21C14.85 12.21 14.78 12.26 14.78 12.45C14.78 12.61 14.78 12.67 14.99 12.67C15.41 12.67 15.86 12.64 16.21 12.64C16.62 12.64 17.00 12.67 17.26 12.67C17.46 12.67 17.47 12.56 17.47 12.43C17.47 12.25 17.42 12.21 17.23 12.21L16.81 12.21C16.70 12.21 16.70 12.21 16.70 12.08C16.70 11.87 16.77 10.47 16.77 9.70C16.77 8.33 16.52 7.18 14.87 7.18C14 7.18 13.48 7.63 13.06 7.90C12.96 7.95 12.91 8.05 12.91 7.90L12.91 7.42C12.91 7.28 12.94 7.21 12.73 7.22C12.32 7.25 11.37 7.31 11.17 7.32C10.98 7.34 10.99 7.35 10.95 7.46C10.92 7.53 10.86 7.67 10.86 7.73ZM17.95 15.02C17.95 16.18 19.42 16.70 20.58 16.70C22.40 16.70 23.70 15.79 23.70 14.34C23.70 12.47 20.82 12.67 19.04 12.56C19.01 12.56 18.87 12.32 18.87 12.18C18.87 12.12 18.89 12.10 18.90 12.10C19.84 11.83 20.68 11.62 21.32 11.37C22.33 10.99 22.96 10.40 22.96 9.20C22.96 8.62 22.79 8.26 22.79 8.20C22.79 8.16 23.42 8.05 23.56 8.04C23.63 8.04 23.65 7.97 23.65 7.91C23.65 7.76 23.58 7.48 23.48 7.48C23.06 7.50 22.51 7.74 22.46 7.74C22.39 7.74 21.78 7.03 20.72 7.03C19.46 7.03 18.21 7.90 18.21 9.16C18.21 10.49 18.98 11.16 20.02 11.45C20.09 11.47 20.15 11.48 20.15 11.49C20.15 11.51 18.75 11.87 18.69 11.89C18.48 11.93 18.41 12.12 18.41 12.38C18.41 12.53 18.42 12.78 18.54 13.06C18.63 13.27 18.90 13.36 19.14 13.36L19.64 13.36C19.94 13.36 19.88 13.36 19.67 13.43C18.97 13.62 17.95 14.11 17.95 15.02ZM18.66 14.92C18.66 14.04 19.77 13.59 20.43 13.59C21.46 13.59 22.82 13.92 22.82 14.67C22.82 15.86 21.62 16.25 20.57 16.25C19.73 16.25 18.66 15.81 18.66 14.92ZM19.19 9.10C19.19 8.19 19.88 7.46 20.65 7.46C21.48 7.46 22.01 8.09 22.01 9.18C22.01 10.43 21.20 11.23 20.68 11.23C20.36 11.23 19.19 10.46 19.19 9.10ZM23.81 3.51C23.81 3.64 23.83 3.65 23.97 3.65C24.09 3.65 24.72 3.61 24.77 3.61C24.86 3.61 24.88 6.80 24.88 9.30L24.88 12.00C24.88 12.21 24.88 12.21 24.77 12.21L24.15 12.21C23.98 12.21 23.98 12.29 23.98 12.43C23.98 12.59 23.98 12.67 24.16 12.67C24.32 12.67 24.88 12.64 25.34 12.64C25.75 12.64 26.07 12.67 26.33 12.67C26.50 12.67 26.52 12.57 26.52 12.47C26.52 12.29 26.52 12.21 26.33 12.21L25.89 12.21C25.86 12.21 25.86 11.77 25.86 11.30L25.86 10.12C25.86 9.95 25.89 9.94 25.97 9.94L26.14 9.94C26.26 9.94 26.28 9.95 26.45 10.16L27.99 12.07C28.06 12.17 28.08 12.21 27.94 12.21L27.76 12.21C27.59 12.21 27.58 12.29 27.58 12.43C27.58 12.59 27.58 12.67 27.76 12.67C27.96 12.67 28.41 12.64 28.76 12.64C29.11 12.64 29.53 12.67 29.72 12.67C29.92 12.67 29.92 12.59 29.92 12.43C29.92 12.26 29.92 12.21 29.72 12.21L29.55 12.21C29.44 12.21 29.41 12.21 29.27 12.04L27.16 9.59C27.05 9.45 27.02 9.48 27.16 9.31C27.45 8.96 28.55 7.60 28.67 7.60L29.12 7.60C29.29 7.60 29.30 7.52 29.30 7.38C29.30 7.21 29.26 7.14 29.13 7.14C28.92 7.14 28.63 7.17 28.27 7.17C27.90 7.17 27.54 7.14 27.40 7.14C27.22 7.14 27.20 7.24 27.20 7.38C27.20 7.52 27.20 7.60 27.38 7.60L27.72 7.60C27.86 7.60 27.92 7.62 27.82 7.76C27.50 8.29 27.12 8.82 26.73 9.34C26.63 9.48 26.53 9.63 26.35 9.63L26.04 9.63C25.87 9.63 25.86 9.62 25.86 9.49L26.01 3.25C26.01 3.08 26.03 3.02 25.90 3.02C25.82 3.02 24.51 3.12 23.98 3.16C23.83 3.18 23.81 3.25 23.81 3.36ZM30.25 10.04C30.25 11.58 31.42 12.85 32.94 12.85C34.71 12.85 35.74 11.58 35.74 9.84C35.74 8.29 34.72 7.01 33.17 7.01C31.42 7.01 30.25 8.37 30.25 10.04ZM31.33 10.23C31.33 8.69 31.72 7.46 33.00 7.46C34.13 7.46 34.65 8.74 34.65 9.74C34.65 10.92 34.41 12.40 32.94 12.40C31.89 12.40 31.33 11.27 31.33 10.23ZM36.50 10.07C36.50 12.11 37.74 12.82 39.00 12.82C39.55 12.82 40.22 12.57 40.70 12.28C40.81 12.21 40.85 12.22 40.85 12.29C40.85 12.35 40.84 12.77 40.84 12.80C40.84 12.92 40.85 12.96 40.95 12.96C41.02 12.96 42.67 12.74 42.67 12.74C42.80 12.73 42.80 12.57 42.80 12.38C42.80 12.28 42.74 12.28 42.66 12.29C42.52 12.31 42.20 12.36 42.15 12.36C41.92 12.36 41.86 12.24 41.85 11.63C41.83 11.13 41.82 10.47 41.82 10.02C41.82 5.68 41.90 3.74 41.90 3.26C41.90 3.07 41.89 3.04 41.83 3.04C41.61 3.04 40.77 3.19 39.84 3.29C39.73 3.30 39.75 3.33 39.72 3.51C39.69 3.70 39.70 3.77 39.77 3.77C39.87 3.77 40.63 3.64 40.71 3.64C40.80 3.64 40.87 6.51 40.87 7.41C40.87 7.52 40.85 7.60 40.82 7.60C40.78 7.60 40.18 7.25 39.38 7.25C37.74 7.25 36.50 8.46 36.50 10.07ZM37.60 9.97C37.60 8.74 38.35 7.62 39.55 7.62C40.26 7.62 40.87 8.16 40.87 8.30L40.87 11.80C40.87 12.00 40.07 12.22 39.69 12.22C38.21 12.22 37.60 11.26 37.60 9.97ZM43.50 10.01C43.50 11.68 44.46 12.85 46.23 12.85C47.68 12.85 48.68 11.56 48.68 11.48C48.68 11.45 48.44 11.24 48.40 11.24C48.31 11.24 47.73 12.15 46.55 12.15C45.54 12.15 44.55 11.33 44.55 9.88C44.55 9.72 44.56 9.49 44.59 9.42C44.80 9.42 47.56 9.49 47.71 9.49C47.85 9.49 48.51 9.46 48.51 9.28C48.51 8.09 47.80 7.01 46.38 7.01C44.67 7.01 43.50 8.33 43.50 10.01ZM44.62 9.03C44.67 8.34 45.32 7.41 46.21 7.41C46.65 7.41 47.46 7.70 47.46 8.99C47.46 9.04 47.29 9.03 46.94 9.04C46.24 9.07 44.81 9.10 44.74 9.10C44.63 9.10 44.62 9.09 44.62 9.03Z"></path></g><!----><g data-v-423bf9ae="" id="2022e089-2082-494c-b8be-d4e5807fedcb" transform="matrix(2.194448471069336,0,0,2.194448471069336,-10.722423553466797,-64.22896575927734)" stroke="none" fill="white"><path d="M23.943 30.807L5 50.001l18.942 19.192a4.386 4.386 0 006.258.002 4.522 4.522 0 00.002-6.338L18.193 50.695l-3.624 2.289 15.634-15.841a4.494 4.494 0 001.295-3.168 4.5 4.5 0 00-1.297-3.17 4.387 4.387 0 00-6.258.002zM76.057 30.808L95 50.001 76.058 69.193a4.386 4.386 0 01-6.258.002 4.522 4.522 0 01-.002-6.338l12.009-12.161 3.624 2.289-15.635-15.841a4.494 4.494 0 01-1.295-3.168 4.5 4.5 0 011.297-3.17 4.386 4.386 0 016.259.002zM60.899 32.352a4.492 4.492 0 00-2.366-2.476 4.386 4.386 0 00-5.825 2.288l-13.82 32.062a4.496 4.496 0 00-.048 3.422 4.492 4.492 0 002.366 2.476 4.386 4.386 0 005.825-2.288l13.82-32.062a4.496 4.496 0 00.048-3.422z"></path></g><!----></svg>