<svg data-v-423bf9ae="" xmlns="http://www.w3.org/2000/svg" viewBox="0 0 468 90" class="iconLeft"><!----><!----><!----><g data-v-423bf9ae="" id="9bbbfbf3-3f34-49e2-896d-3466c335e697" fill="#E7E7E6" transform="matrix(4.735595703125,0,0,4.735595703125,175.5269317626953,4.723758220672607)"><path d="M3.60 12.46Q2.09 12.46 1.29 11.83Q0.50 11.20 0.50 10.25L0.50 10.25Q0.50 10.09 0.51 10.04Q0.52 10.00 0.52 9.98L0.52 9.98L1.93 9.98L1.93 10.11Q1.93 10.71 2.42 11.01Q2.91 11.31 3.67 11.31L3.67 11.31Q4.34 11.31 4.79 11.06Q5.25 10.81 5.25 10.35L5.25 10.35Q5.25 9.98 5.00 9.75Q4.75 9.52 4.38 9.39Q4.02 9.25 3.33 9.07L3.33 9.07Q2.49 8.86 1.96 8.65Q1.43 8.44 1.06 8.02Q0.69 7.60 0.69 6.90L0.69 6.90Q0.69 5.89 1.51 5.33Q2.34 4.76 3.71 4.76L3.71 4.76Q4.56 4.76 5.20 5.02Q5.84 5.28 6.18 5.74Q6.52 6.20 6.52 6.78L6.52 6.78L6.51 7.06L5.10 7.06L5.10 6.96Q5.10 6.50 4.73 6.21Q4.35 5.92 3.58 5.92L3.58 5.92Q2.84 5.92 2.50 6.18Q2.16 6.44 2.16 6.79L2.16 6.79Q2.16 7.22 2.58 7.43Q3.00 7.64 3.91 7.85L3.91 7.85Q4.79 8.06 5.35 8.28Q5.91 8.50 6.31 8.95Q6.72 9.41 6.72 10.16L6.72 10.16Q6.72 11.34 5.87 11.90Q5.03 12.46 3.60 12.46L3.60 12.46ZM10.09 12.46Q9.18 12.46 8.45 12.01Q7.71 11.56 7.71 10.39L7.71 10.39Q7.71 8.97 8.95 8.43Q10.18 7.88 12.47 7.88L12.47 7.88L12.47 7.15Q12.47 6.55 12.16 6.24Q11.84 5.92 10.99 5.92L10.99 5.92Q10.16 5.92 9.82 6.22Q9.48 6.51 9.48 6.93L9.48 6.93L9.48 7.11L8.08 7.11Q8.06 7.03 8.06 6.80L8.06 6.80Q8.06 5.84 8.88 5.30Q9.69 4.76 11.05 4.76L11.05 4.76Q12.47 4.76 13.20 5.35Q13.92 5.94 13.92 7.01L13.92 7.01L13.92 10.78Q13.92 11.03 14.06 11.15Q14.20 11.27 14.41 11.27L14.41 11.27L14.91 11.27L14.91 12.24Q14.55 12.42 13.92 12.42L13.92 12.42Q13.41 12.42 13.07 12.14Q12.73 11.87 12.61 11.40L12.61 11.40L12.52 11.40Q12.12 11.90 11.52 12.18Q10.91 12.46 10.09 12.46L10.09 12.46ZM10.51 11.28Q11.34 11.28 11.91 10.79Q12.47 10.29 12.47 9.42L12.47 9.42L12.47 8.97Q10.88 8.97 10.04 9.25Q9.20 9.52 9.20 10.28L9.20 10.28Q9.20 10.79 9.53 11.04Q9.86 11.28 10.51 11.28L10.51 11.28ZM15.97 12.29L15.97 4.93L17.14 4.93L17.28 5.91L17.37 5.91Q17.77 5.35 18.39 5.05Q19.01 4.76 19.80 4.76L19.80 4.76Q22.13 4.76 22.13 7.29L22.13 7.29L22.13 12.29L20.69 12.29L20.69 7.48Q20.69 6.65 20.32 6.32Q19.95 5.99 19.24 5.99L19.24 5.99Q18.75 5.99 18.33 6.24Q17.91 6.48 17.66 6.93Q17.42 7.38 17.42 7.97L17.42 7.97L17.42 12.29L15.97 12.29ZM25.27 14.84Q24.49 14.84 23.91 14.41Q23.32 13.97 23.32 13.09L23.32 13.09Q23.32 12.00 24.50 11.54L24.50 11.54Q24.16 11.35 23.95 11.07Q23.74 10.78 23.74 10.42L23.74 10.42Q23.74 9.90 24.12 9.60Q24.50 9.30 24.99 9.17L24.99 9.17Q24.51 8.83 24.25 8.34Q23.98 7.85 23.98 7.25L23.98 7.25Q23.98 6.08 24.79 5.42Q25.61 4.76 27.05 4.76L27.05 4.76Q27.82 4.76 28.46 5.00L28.46 5.00Q29.34 4.54 29.46 3.72L29.46 3.72L30.84 3.72Q30.84 4.42 30.45 4.90Q30.06 5.38 29.37 5.53L29.37 5.53Q30.13 6.20 30.13 7.25L30.13 7.25Q30.13 8.41 29.32 9.07Q28.50 9.73 27.08 9.73L27.08 9.73L25.91 9.73Q25.58 9.73 25.40 9.88Q25.21 10.04 25.21 10.28L25.21 10.28Q25.21 10.51 25.39 10.67Q25.56 10.82 25.89 10.82L25.89 10.82L28.97 10.82Q29.82 10.82 30.34 11.35Q30.86 11.89 30.86 12.67L30.86 12.67Q30.86 13.24 30.58 13.74Q30.30 14.24 29.74 14.54Q29.18 14.84 28.39 14.84L28.39 14.84L25.27 14.84ZM27.05 8.68Q27.86 8.68 28.28 8.31Q28.70 7.94 28.70 7.25L28.70 7.25Q28.70 6.57 28.29 6.19Q27.87 5.82 27.05 5.82L27.05 5.82Q26.24 5.82 25.82 6.19Q25.41 6.57 25.41 7.25L25.41 7.25Q25.41 7.94 25.82 8.31Q26.24 8.68 27.05 8.68L27.05 8.68ZM25.61 13.75L28.41 13.75Q28.84 13.75 29.13 13.51Q29.41 13.27 29.41 12.89L29.41 12.89Q29.41 12.52 29.18 12.29Q28.94 12.07 28.56 12.07L28.56 12.07L25.61 12.07Q25.23 12.07 25.00 12.29Q24.77 12.52 24.77 12.89L24.77 12.89Q24.77 13.29 25.00 13.52Q25.23 13.75 25.61 13.75L25.61 13.75ZM32.02 12.29L32.02 2.17L33.46 2.17L33.46 8.33L36.37 4.93L38.11 4.93L35.60 7.80L38.25 12.29L36.58 12.29L34.69 8.85L33.46 10.02L33.46 12.29L32.02 12.29ZM42.31 12.46Q40.56 12.46 39.68 11.52Q38.81 10.57 38.81 8.61L38.81 8.61Q38.81 6.65 39.68 5.71Q40.56 4.76 42.31 4.76L42.31 4.76Q44.06 4.76 44.94 5.71Q45.82 6.65 45.82 8.61L45.82 8.61Q45.82 10.57 44.94 11.52Q44.06 12.46 42.31 12.46L42.31 12.46ZM42.31 11.27Q43.37 11.27 43.86 10.65Q44.34 10.02 44.34 8.68L44.34 8.68L44.34 8.54Q44.34 7.20 43.86 6.57Q43.37 5.95 42.31 5.95L42.31 5.95Q41.26 5.95 40.78 6.57Q40.29 7.20 40.29 8.54L40.29 8.54L40.29 8.68Q40.29 10.02 40.78 10.65Q41.26 11.27 42.31 11.27L42.31 11.27ZM49.74 12.46Q48.34 12.46 47.59 11.52Q46.83 10.57 46.83 8.61L46.83 8.61Q46.83 6.68 47.59 5.72Q48.34 4.76 49.64 4.76L49.64 4.76Q51.17 4.76 51.87 5.77L51.87 5.77L51.95 5.77L51.95 2.17L53.40 2.17L53.40 12.29L52.25 12.29L52.11 11.31L52.01 11.31Q51.66 11.87 51.06 12.17Q50.47 12.46 49.74 12.46L49.74 12.46ZM50.15 11.24Q51.09 11.24 51.52 10.60Q51.95 9.95 51.95 8.69L51.95 8.69L51.95 8.58Q51.95 5.98 50.15 5.98L50.15 5.98Q49.15 5.98 48.73 6.57Q48.31 7.17 48.31 8.57L48.31 8.57L48.31 8.69Q48.31 10.07 48.73 10.65Q49.15 11.24 50.15 11.24L50.15 11.24ZM58.39 12.46Q56.62 12.46 55.75 11.52Q54.88 10.58 54.88 8.61L54.88 8.61Q54.88 6.64 55.75 5.70Q56.62 4.76 58.39 4.76L58.39 4.76Q60.00 4.76 60.80 5.63Q61.60 6.51 61.60 8.41L61.60 8.41L61.60 8.97L56.36 8.97Q56.42 10.16 56.90 10.73Q57.39 11.30 58.41 11.30L58.41 11.30Q59.21 11.30 59.70 10.92Q60.19 10.54 60.19 9.76L60.19 9.76L61.60 9.76Q61.60 11.07 60.71 11.77Q59.82 12.46 58.39 12.46L58.39 12.46ZM56.39 7.88L60.10 7.88Q60.10 5.92 58.39 5.92L58.39 5.92Q57.44 5.92 56.97 6.39Q56.49 6.86 56.39 7.88L56.39 7.88Z"></path></g><!----><g data-v-423bf9ae="" id="52e81a43-bbec-4526-bce1-7f8ce1756a75" transform="matrix(1.7543858289718628,0,0,1.7543858289718628,-8.719291687011719,-42.407012939453125)" stroke="none" fill="#E7E7E6"><path d="M30.3 42.8c1.4-1.4 2.2-3.3 2.2-5.3s-.8-3.9-2.2-5.3C28.9 30.8 27 30 25 30s-3.9.8-5.3 2.2L7.2 44.7C5.8 46.1 5 48 5 50s.8 3.9 2.2 5.3l12.5 12.5C21.1 69.2 23 70 25 70s3.9-.8 5.3-2.2c1.4-1.4 2.2-3.3 2.2-5.3s-.8-3.9-2.2-5.3L25 51.9 23.1 50l1.9-1.9 5.3-5.3zm-12.5 9l9 9c.5.5.7 1.1.7 1.8s-.3 1.3-.7 1.8c-.9.9-2.6.9-3.5 0L10.7 51.8c-.4-.5-.7-1.1-.7-1.8s.3-1.3.7-1.8l12.5-12.5c.5-.5 1.1-.7 1.8-.7s1.3.3 1.8.7c.5.5.7 1.1.7 1.8s-.3 1.3-.7 1.8l-9 9c-1 .9-1 2.5 0 3.5zM80.3 32.2C78.9 30.8 77 30 75 30s-3.9.8-5.3 2.2c-1.4 1.4-2.2 3.3-2.2 5.3s.8 3.9 2.2 5.3l5.3 5.3 1.9 1.9-1.9 1.9-5.3 5.3c-1.4 1.4-2.2 3.3-2.2 5.3s.8 3.9 2.2 5.3C71.1 69.2 73 70 75 70s3.9-.8 5.3-2.2l12.5-12.5C94.2 53.9 95 52 95 50s-.8-3.9-2.2-5.3L80.3 32.2zm9 19.6L76.8 64.3c-.9.9-2.6.9-3.5 0-.5-.5-.7-1.1-.7-1.8s.3-1.3.7-1.8l9-9c1-1 1-2.6 0-3.5l-9-9c-.5-.5-.7-1.1-.7-1.8s.3-1.3.7-1.8c.5-.5 1.1-.7 1.8-.7s1.3.3 1.8.7l12.5 12.5c.5.5.7 1.1.7 1.8s-.4 1.4-.8 1.9zM43.2 75.4c.6.2 1.3.3 1.9.3 3.4 0 6.4-2.3 7.2-5.6L62 33.9c.5-1.9.3-4-.7-5.7-1-1.7-2.6-3-4.6-3.5-.6-.2-1.3-.3-1.9-.3-3.4 0-6.4 2.3-7.2 5.6l-9.7 36.2c-.5 1.9-.3 4 .7 5.7 1.1 1.7 2.7 2.9 4.6 3.5zm-.5-7.9l9.7-36.2c.3-1.1 1.3-1.9 2.4-1.9.2 0 .4 0 .6.1.6.2 1.2.6 1.5 1.2.3.6.4 1.3.2 1.9l-9.7 36.2c-.3 1.3-1.7 2.1-3.1 1.8-.6-.2-1.2-.6-1.5-1.2-.2-.6-.2-1.3-.1-1.9z"></path></g><!----></svg>